<svg version="1.2" baseProfile="tiny" id="Layer_1" xmlns="http://www.w3.org/2000/svg" xmlns:xlink="http://www.w3.org/1999/xlink" x="0px" y="0px" width="100%" height="100%" viewBox="0 0 1248.979 360.053" xml:space="preserve"><style>g{fill:#fefcf2}</style><g><path d="M335.885,135.326c-2.222-1.508-4.765-2.561-7.61-3.013c-2.846-0.528-5.803-0.831-8.854-0.831h-38.634v42.499h39.03c7.589,0,13.374-1.81,17.292-5.427c3.955-3.616,5.915-9.042,5.915-16.274c0-4.371-0.641-7.836-1.902-10.548C339.84,138.944,338.107,136.833,335.885,135.326z"/><path d="M973.956,136.004c-2.188-1.732-4.672-2.863-7.46-3.542c-2.788-0.602-5.728-0.98-8.89-0.98h-35.266v44.984h34.888c2.637,0,5.349-0.377,8.137-1.205c2.788-0.755,5.353-1.959,7.687-3.691c2.409-1.734,4.293-3.995,5.727-6.858c1.506-2.863,2.187-6.404,2.187-10.774c0-4.369-0.605-8.062-1.884-11.001C977.799,139.998,976.066,137.662,973.956,136.004z"/><polygon points="439.507,135.477 418.955,193.948 460.456,193.948 440.09,135.477 "/><path d="M0,0v360.053h1248.979V0H0z M241.21,132.614h-43.194V248.01h-23.794V132.614h-43.024v-20.495H241.21V132.614z M346.453,248.01c-1.772-2.939-2.827-6.179-3.148-9.72c-0.317-3.543-0.468-7.008-0.468-10.247c0-6.255-0.396-11.604-1.131-16.126c-0.774-4.482-2.168-8.25-4.2-11.189c-2.035-3.013-4.787-5.199-8.27-6.631c-3.504-1.355-7.989-2.033-13.431-2.033h-35.018v55.946h-23.794V112.119h64.895c14.977,0,26.221,3.24,33.681,9.72c7.499,6.404,11.245,15.446,11.245,26.975c0,6.481-0.958,11.83-2.842,16.125c-1.905,4.22-4.146,7.685-6.688,10.248c-2.525,2.636-5.028,4.444-7.517,5.651c-2.467,1.129-4.275,1.884-5.406,2.26v0.377c2.035,0.227,4.221,0.903,6.577,1.883c2.334,1.056,4.521,2.639,6.534,4.898c2.053,2.186,3.731,5.124,5.068,8.665c1.318,3.542,1.978,7.987,1.978,13.3c0,7.987,0.623,15.295,1.83,21.775c1.185,6.555,3.069,11.227,5.612,14.015H346.453z M479.48,248.01l-12.754-36.017h-54.23l-12.772,36.017h-24.547l52.162-135.892h25.296l52.35,135.892H479.48z M627.164,248.01h-25.13l-61.822-99.95h-0.566v99.95h-22.681V112.119h25.13l62.049,100.102h0.378V112.119h22.642V248.01z M753.259,228.119c-3.087,5.349-7.193,9.795-12.283,13.185c-5.046,3.467-10.849,5.954-17.328,7.535c-6.443,1.583-13.035,2.411-19.777,2.411c-7.727,0-15.035-0.979-21.889-2.863c-6.858-1.884-12.812-4.821-17.898-8.74c-5.046-3.994-9.116-9.042-12.167-15.146c-3.051-6.177-4.636-13.411-4.747-21.812h23.772c0,5.199,0.868,9.606,2.676,13.3c1.769,3.691,4.258,6.705,7.42,9.041c3.166,2.335,6.818,4.069,10.925,5.199c4.146,1.055,8.63,1.583,13.453,1.583c5.197,0,9.642-0.604,13.298-1.809c3.652-1.206,6.667-2.788,8.929-4.672c2.334-1.884,3.955-4.069,4.971-6.555c1.02-2.487,1.51-4.975,1.51-7.535c0-5.162-1.131-9.005-3.505-11.492c-2.334-2.485-4.935-4.22-7.723-5.199c-4.823-1.808-10.398-3.465-16.843-5.124c-6.403-1.581-14.277-3.616-23.696-6.102c-5.839-1.583-10.697-3.542-14.54-6.029c-3.844-2.485-6.934-5.273-9.232-8.288c-2.298-3.013-3.918-6.253-4.858-9.72c-0.944-3.391-1.434-6.855-1.434-10.474c0-6.856,1.434-12.809,4.297-17.782c2.863-4.973,6.631-9.192,11.303-12.432c4.708-3.316,10.021-5.803,16.011-7.309c5.989-1.659,11.979-2.412,18.045-2.412c7.121,0,13.788,0.904,20.12,2.713c6.253,1.884,11.792,4.596,16.54,8.288c4.783,3.691,8.551,8.214,11.338,13.638c2.788,5.427,4.182,11.68,4.182,18.763h-23.771c-0.678-8.74-3.656-14.995-8.969-18.611c-5.35-3.616-12.131-5.426-20.344-5.426c-2.788,0-5.651,0.303-8.59,0.904c-2.936,0.603-5.576,1.507-7.986,2.863c-2.409,1.282-4.408,3.091-6.029,5.426c-1.581,2.261-2.334,5.124-2.334,8.515c0,4.821,1.47,8.665,4.445,11.377c3.015,2.712,6.894,4.747,11.717,6.179c0.489,0.151,2.524,0.678,5.989,1.583c3.505,0.979,7.384,2.033,11.681,3.164c4.334,1.13,8.591,2.261,12.657,3.316c4.146,1.053,7.085,1.884,8.894,2.411c4.444,1.356,8.287,3.239,11.602,5.649c3.317,2.411,6.029,5.199,8.287,8.29c2.187,3.164,3.844,6.479,4.975,10.021c1.056,3.542,1.581,7.083,1.581,10.699C757.93,216.212,756.385,222.693,753.259,228.119z M877.811,248.01h-99.159V112.119h97.802v20.495h-73.989v35.64h68.489v19.439h-68.489v39.747h75.347V248.01z M1002.965,167.726c-1.206,4.896-3.465,9.419-6.782,13.639c-3.313,4.22-7.985,7.685-14.091,10.396c-6.025,2.714-13.938,4.07-23.581,4.07h-36.17v52.179h-23.809V112.119h59.979c9.643,0,17.556,1.356,23.581,4.145c6.105,2.787,10.777,6.33,14.091,10.474c3.317,4.22,5.576,8.74,6.782,13.713c1.207,4.974,1.808,9.494,1.808,13.714C1004.772,158.307,1004.172,162.904,1002.965,167.726z M1122.619,132.614h-43.251V248.01h-23.733V132.614h-43.024v-20.495h110.009V132.614z"/></g></svg>